<svg xmlns="http://www.w3.org/2000/svg" width="1480" height="910" viewBox="0 0 1480 910" font-family="Calibri, 'Segoe UI', Arial, sans-serif">
<rect width="1480" height="910" fill="#12151B"/>
<rect x="0" y="0" width="1480" height="96" fill="#0C0E12"/>
<rect x="0" y="866" width="1480" height="44" fill="#FF6A00"/>
<text x="56" y="46" fill="#F4F6FA" font-size="30" font-weight="700">IPv6 standards vs. IPv4 exhaustion</text>
<text x="56" y="76" fill="#9AA6B4" font-size="16">The relevant RFCs landed years before the regional registries actually ran out of IPv4</text>
<circle cx="1010" cy="40" r="7" fill="#FF6A00"/>
<text x="1026" y="45" fill="#F4F6FA" font-size="15">IPv6 / NAT RFC published</text>
<circle cx="1242" cy="40" r="7" fill="#E0524A"/>
<text x="1258" y="45" fill="#F4F6FA" font-size="15">IPv4 pool exhausted (RIR)</text>
<line x1="110" y1="460" x2="1410" y2="460" stroke="#5E6B7A" stroke-width="3"/>
<line x1="110.0" y1="454" x2="110.0" y2="466" stroke="#5E6B7A" stroke-width="2"/>
<line x1="110.0" y1="100" x2="110.0" y2="850" stroke="#2E3642" stroke-width="1" opacity="0.35"/>
<text x="110.0" y="484" fill="#9AA6B4" font-size="13" text-anchor="middle">1994</text>
<line x1="163.7" y1="454" x2="163.7" y2="466" stroke="#5E6B7A" stroke-width="1"/>
<line x1="217.4" y1="454" x2="217.4" y2="466" stroke="#5E6B7A" stroke-width="2"/>
<line x1="217.4" y1="100" x2="217.4" y2="850" stroke="#2E3642" stroke-width="1" opacity="0.35"/>
<text x="217.4" y="484" fill="#9AA6B4" font-size="13" text-anchor="middle">1996</text>
<line x1="271.2" y1="454" x2="271.2" y2="466" stroke="#5E6B7A" stroke-width="1"/>
<line x1="324.9" y1="454" x2="324.9" y2="466" stroke="#5E6B7A" stroke-width="2"/>
<line x1="324.9" y1="100" x2="324.9" y2="850" stroke="#2E3642" stroke-width="1" opacity="0.35"/>
<text x="324.9" y="484" fill="#9AA6B4" font-size="13" text-anchor="middle">1998</text>
<line x1="378.6" y1="454" x2="378.6" y2="466" stroke="#5E6B7A" stroke-width="1"/>
<line x1="432.3" y1="454" x2="432.3" y2="466" stroke="#5E6B7A" stroke-width="2"/>
<line x1="432.3" y1="100" x2="432.3" y2="850" stroke="#2E3642" stroke-width="1" opacity="0.35"/>
<text x="432.3" y="484" fill="#9AA6B4" font-size="13" text-anchor="middle">2000</text>
<line x1="486.0" y1="454" x2="486.0" y2="466" stroke="#5E6B7A" stroke-width="1"/>
<line x1="539.8" y1="454" x2="539.8" y2="466" stroke="#5E6B7A" stroke-width="2"/>
<line x1="539.8" y1="100" x2="539.8" y2="850" stroke="#2E3642" stroke-width="1" opacity="0.35"/>
<text x="539.8" y="484" fill="#9AA6B4" font-size="13" text-anchor="middle">2002</text>
<line x1="593.5" y1="454" x2="593.5" y2="466" stroke="#5E6B7A" stroke-width="1"/>
<line x1="647.2" y1="454" x2="647.2" y2="466" stroke="#5E6B7A" stroke-width="2"/>
<line x1="647.2" y1="100" x2="647.2" y2="850" stroke="#2E3642" stroke-width="1" opacity="0.35"/>
<text x="647.2" y="484" fill="#9AA6B4" font-size="13" text-anchor="middle">2004</text>
<line x1="700.9" y1="454" x2="700.9" y2="466" stroke="#5E6B7A" stroke-width="1"/>
<line x1="754.6" y1="454" x2="754.6" y2="466" stroke="#5E6B7A" stroke-width="2"/>
<line x1="754.6" y1="100" x2="754.6" y2="850" stroke="#2E3642" stroke-width="1" opacity="0.35"/>
<text x="754.6" y="484" fill="#9AA6B4" font-size="13" text-anchor="middle">2006</text>
<line x1="808.3" y1="454" x2="808.3" y2="466" stroke="#5E6B7A" stroke-width="1"/>
<line x1="862.1" y1="454" x2="862.1" y2="466" stroke="#5E6B7A" stroke-width="2"/>
<line x1="862.1" y1="100" x2="862.1" y2="850" stroke="#2E3642" stroke-width="1" opacity="0.35"/>
<text x="862.1" y="484" fill="#9AA6B4" font-size="13" text-anchor="middle">2008</text>
<line x1="915.8" y1="454" x2="915.8" y2="466" stroke="#5E6B7A" stroke-width="1"/>
<line x1="969.5" y1="454" x2="969.5" y2="466" stroke="#5E6B7A" stroke-width="2"/>
<line x1="969.5" y1="100" x2="969.5" y2="850" stroke="#2E3642" stroke-width="1" opacity="0.35"/>
<text x="969.5" y="484" fill="#9AA6B4" font-size="13" text-anchor="middle">2010</text>
<line x1="1023.2" y1="454" x2="1023.2" y2="466" stroke="#5E6B7A" stroke-width="1"/>
<line x1="1076.9" y1="454" x2="1076.9" y2="466" stroke="#5E6B7A" stroke-width="2"/>
<line x1="1076.9" y1="100" x2="1076.9" y2="850" stroke="#2E3642" stroke-width="1" opacity="0.35"/>
<text x="1076.9" y="484" fill="#9AA6B4" font-size="13" text-anchor="middle">2012</text>
<line x1="1130.7" y1="454" x2="1130.7" y2="466" stroke="#5E6B7A" stroke-width="1"/>
<line x1="1184.4" y1="454" x2="1184.4" y2="466" stroke="#5E6B7A" stroke-width="2"/>
<line x1="1184.4" y1="100" x2="1184.4" y2="850" stroke="#2E3642" stroke-width="1" opacity="0.35"/>
<text x="1184.4" y="484" fill="#9AA6B4" font-size="13" text-anchor="middle">2014</text>
<line x1="1238.1" y1="454" x2="1238.1" y2="466" stroke="#5E6B7A" stroke-width="1"/>
<line x1="1291.8" y1="454" x2="1291.8" y2="466" stroke="#5E6B7A" stroke-width="2"/>
<line x1="1291.8" y1="100" x2="1291.8" y2="850" stroke="#2E3642" stroke-width="1" opacity="0.35"/>
<text x="1291.8" y="484" fill="#9AA6B4" font-size="13" text-anchor="middle">2016</text>
<line x1="1345.5" y1="454" x2="1345.5" y2="466" stroke="#5E6B7A" stroke-width="1"/>
<line x1="1399.3" y1="454" x2="1399.3" y2="466" stroke="#5E6B7A" stroke-width="2"/>
<line x1="1399.3" y1="100" x2="1399.3" y2="850" stroke="#2E3642" stroke-width="1" opacity="0.35"/>
<text x="1399.3" y="484" fill="#9AA6B4" font-size="13" text-anchor="middle">2018</text>
<text x="110" y="150" fill="#FFA552" font-size="14" font-weight="700" letter-spacing="1">IPv6 &amp; NAT / PRIVATE-SPACE RFCs  ↑</text>
<text x="110" y="710" fill="#F2867E" font-size="14" font-weight="700" letter-spacing="1">IPv4 EXHAUSTION BY REGISTRY  ↓</text>
<line x1="129.9" y1="460" x2="129.9" y2="432" stroke="#FF6A00" stroke-width="1.4" opacity="0.7"/>
<rect x="86.9" y="382" width="86.0" height="50" rx="7" fill="#242B36" stroke="#FF6A00" stroke-width="1.3"/>
<text x="129.9" y="403" fill="#FF6A00" font-size="14.5" font-weight="700" text-anchor="middle">RFC 1631</text>
<text x="129.9" y="421" fill="#F4F6FA" font-size="12" text-anchor="middle">NAT</text>
<circle cx="129.9" cy="460" r="7" fill="#FF6A00" stroke="#12151B" stroke-width="2"/>
<line x1="215.3" y1="460" x2="215.3" y2="360" stroke="#FF6A00" stroke-width="1.4" opacity="0.7"/>
<rect x="150.7" y="310" width="129.1" height="50" rx="7" fill="#242B36" stroke="#FF6A00" stroke-width="1.3"/>
<text x="215.3" y="331" fill="#FF6A00" font-size="14.5" font-weight="700" text-anchor="middle">RFC 1883</text>
<text x="215.3" y="349" fill="#F4F6FA" font-size="12" text-anchor="middle">IPv6 — first spec</text>
<circle cx="215.3" cy="460" r="7" fill="#FF6A00" stroke="#12151B" stroke-width="2"/>
<line x1="223.9" y1="460" x2="223.9" y2="288" stroke="#FF6A00" stroke-width="1.4" opacity="0.7"/>
<rect x="146.7" y="238" width="154.3" height="50" rx="7" fill="#242B36" stroke="#FF6A00" stroke-width="1.3"/>
<text x="223.9" y="259" fill="#FF6A00" font-size="14.5" font-weight="700" text-anchor="middle">RFC 1918</text>
<text x="223.9" y="277" fill="#F4F6FA" font-size="12" text-anchor="middle">Private address space</text>
<circle cx="223.9" cy="460" r="7" fill="#FF6A00" stroke="#12151B" stroke-width="2"/>
<line x1="376.4" y1="460" x2="376.4" y2="432" stroke="#FF6A00" stroke-width="1.4" opacity="0.7"/>
<rect x="308.7" y="382" width="135.4" height="50" rx="7" fill="#242B36" stroke="#FF6A00" stroke-width="1.3"/>
<text x="376.4" y="403" fill="#FF6A00" font-size="14.5" font-weight="700" text-anchor="middle">RFC 2460</text>
<text x="376.4" y="421" fill="#F4F6FA" font-size="12" text-anchor="middle">IPv6 specification</text>
<circle cx="376.4" cy="460" r="7" fill="#FF6A00" stroke="#12151B" stroke-width="2"/>
<line x1="622.5" y1="460" x2="622.5" y2="432" stroke="#FF6A00" stroke-width="1.4" opacity="0.7"/>
<rect x="579.5" y="382" width="86.0" height="50" rx="7" fill="#242B36" stroke="#FF6A00" stroke-width="1.3"/>
<text x="622.5" y="403" fill="#FF6A00" font-size="14.5" font-weight="700" text-anchor="middle">RFC 3315</text>
<text x="622.5" y="421" fill="#F4F6FA" font-size="12" text-anchor="middle">DHCPv6</text>
<circle cx="622.5" cy="460" r="7" fill="#FF6A00" stroke="#12151B" stroke-width="2"/>
<line x1="676.2" y1="460" x2="676.2" y2="360" stroke="#FF6A00" stroke-width="1.4" opacity="0.7"/>
<rect x="589.6" y="310" width="173.2" height="50" rx="7" fill="#242B36" stroke="#FF6A00" stroke-width="1.3"/>
<text x="676.2" y="331" fill="#FF6A00" font-size="14.5" font-weight="700" text-anchor="middle">RFC 3849</text>
<text x="676.2" y="349" fill="#F4F6FA" font-size="12" text-anchor="middle">Doc prefix 2001:db8::/32</text>
<circle cx="676.2" cy="460" r="7" fill="#FF6A00" stroke="#12151B" stroke-width="2"/>
<line x1="743.3" y1="460" x2="743.3" y2="288" stroke="#FF6A00" stroke-width="1.4" opacity="0.7"/>
<rect x="675.6" y="238" width="135.4" height="50" rx="7" fill="#242B36" stroke="#FF6A00" stroke-width="1.3"/>
<text x="743.3" y="259" fill="#FF6A00" font-size="14.5" font-weight="700" text-anchor="middle">RFC 4193</text>
<text x="743.3" y="277" fill="#F4F6FA" font-size="12" text-anchor="middle">Unique Local (ULA)</text>
<circle cx="743.3" cy="460" r="7" fill="#FF6A00" stroke="#12151B" stroke-width="2"/>
<line x1="761.1" y1="460" x2="761.1" y2="432" stroke="#FF6A00" stroke-width="1.4" opacity="0.7"/>
<rect x="683.9" y="382" width="154.3" height="50" rx="7" fill="#242B36" stroke="#FF6A00" stroke-width="1.3"/>
<text x="761.1" y="403" fill="#FF6A00" font-size="14.5" font-weight="700" text-anchor="middle">RFC 4291</text>
<text x="761.1" y="421" fill="#F4F6FA" font-size="12" text-anchor="middle">IPv6 addressing arch.</text>
<circle cx="761.1" cy="460" r="7" fill="#FF6A00" stroke="#12151B" stroke-width="2"/>
<line x1="846.0" y1="460" x2="846.0" y2="216" stroke="#FF6A00" stroke-width="1.4" opacity="0.7"/>
<rect x="753.1" y="166" width="185.8" height="50" rx="7" fill="#242B36" stroke="#FF6A00" stroke-width="1.3"/>
<text x="846.0" y="187" fill="#FF6A00" font-size="14.5" font-weight="700" text-anchor="middle">RFC 4861/4862</text>
<text x="846.0" y="205" fill="#F4F6FA" font-size="12" text-anchor="middle">Neighbor Discovery + SLAAC</text>
<circle cx="846.0" cy="460" r="7" fill="#FF6A00" stroke="#12151B" stroke-width="2"/>
<line x1="1038.8" y1="460" x2="1038.8" y2="432" stroke="#FF6A00" stroke-width="1.4" opacity="0.7"/>
<rect x="974.3" y="382" width="129.1" height="50" rx="7" fill="#242B36" stroke="#FF6A00" stroke-width="1.3"/>
<text x="1038.8" y="403" fill="#FF6A00" font-size="14.5" font-weight="700" text-anchor="middle">RFC 6164</text>
<text x="1038.8" y="421" fill="#F4F6FA" font-size="12" text-anchor="middle">/127 on P2P links</text>
<circle cx="1038.8" cy="460" r="7" fill="#FF6A00" stroke="#12151B" stroke-width="2"/>
<line x1="1074.8" y1="460" x2="1074.8" y2="360" stroke="#FF6A00" stroke-width="1.4" opacity="0.7"/>
<rect x="994.5" y="310" width="160.6" height="50" rx="7" fill="#242B36" stroke="#FF6A00" stroke-width="1.3"/>
<text x="1074.8" y="331" fill="#FF6A00" font-size="14.5" font-weight="700" text-anchor="middle">RFC 6434</text>
<text x="1074.8" y="349" fill="#F4F6FA" font-size="12" text-anchor="middle">IPv6 node requirements</text>
<circle cx="1074.8" cy="460" r="7" fill="#FF6A00" stroke="#12151B" stroke-width="2"/>
<line x1="1374.5" y1="460" x2="1374.5" y2="432" stroke="#FF6A00" stroke-width="1.4" opacity="0.7"/>
<rect x="1276.8" y="382" width="173.2" height="50" rx="7" fill="#242B36" stroke="#FF6A00" stroke-width="1.3"/>
<text x="1363.4" y="403" fill="#FF6A00" font-size="14.5" font-weight="700" text-anchor="middle">RFC 8200</text>
<text x="1363.4" y="421" fill="#F4F6FA" font-size="12" text-anchor="middle">IPv6 = Internet Standard</text>
<circle cx="1374.5" cy="460" r="7" fill="#FF6A00" stroke="#12151B" stroke-width="2"/>
<line x1="1028.1" y1="460" x2="1028.1" y2="522" stroke="#E0524A" stroke-width="1.4" opacity="0.7"/>
<rect x="941.5" y="522" width="173.2" height="50" rx="7" fill="#242B36" stroke="#E0524A" stroke-width="1.3"/>
<text x="1028.1" y="543" fill="#E0524A" font-size="14.5" font-weight="700" text-anchor="middle">IANA</text>
<text x="1028.1" y="561" fill="#F4F6FA" font-size="12" text-anchor="middle">global pool — 3 Feb 2011</text>
<circle cx="1028.1" cy="460" r="7" fill="#E0524A" stroke="#12151B" stroke-width="2"/>
<line x1="1038.8" y1="460" x2="1038.8" y2="594" stroke="#E0524A" stroke-width="1.4" opacity="0.7"/>
<rect x="945.9" y="594" width="185.8" height="50" rx="7" fill="#242B36" stroke="#E0524A" stroke-width="1.3"/>
<text x="1038.8" y="615" fill="#E0524A" font-size="14.5" font-weight="700" text-anchor="middle">APNIC</text>
<text x="1038.8" y="633" fill="#F4F6FA" font-size="12" text-anchor="middle">Asia-Pacific — 15 Apr 2011</text>
<circle cx="1038.8" cy="460" r="7" fill="#E0524A" stroke="#12151B" stroke-width="2"/>
<line x1="1114.5" y1="460" x2="1114.5" y2="666" stroke="#E0524A" stroke-width="1.4" opacity="0.7"/>
<rect x="1018.5" y="666" width="192.1" height="50" rx="7" fill="#242B36" stroke="#E0524A" stroke-width="1.3"/>
<text x="1114.5" y="687" fill="#E0524A" font-size="14.5" font-weight="700" text-anchor="middle">RIPE NCC</text>
<text x="1114.5" y="705" fill="#F4F6FA" font-size="12" text-anchor="middle">Europe / M.E. — 14 Sep 2012</text>
<circle cx="1114.5" cy="460" r="7" fill="#E0524A" stroke="#12151B" stroke-width="2"/>
<line x1="1208.0" y1="460" x2="1208.0" y2="738" stroke="#E0524A" stroke-width="1.4" opacity="0.7"/>
<rect x="1112.0" y="738" width="192.1" height="50" rx="7" fill="#242B36" stroke="#E0524A" stroke-width="1.3"/>
<text x="1208.0" y="759" fill="#E0524A" font-size="14.5" font-weight="700" text-anchor="middle">LACNIC</text>
<text x="1208.0" y="777" fill="#F4F6FA" font-size="12" text-anchor="middle">Latin America — 10 Jun 2014</text>
<circle cx="1208.0" cy="460" r="7" fill="#E0524A" stroke="#12151B" stroke-width="2"/>
<line x1="1277.3" y1="460" x2="1277.3" y2="522" stroke="#E0524A" stroke-width="1.4" opacity="0.7"/>
<rect x="1181.3" y="522" width="192.1" height="50" rx="7" fill="#242B36" stroke="#E0524A" stroke-width="1.3"/>
<text x="1277.3" y="543" fill="#E0524A" font-size="14.5" font-weight="700" text-anchor="middle">ARIN</text>
<text x="1277.3" y="561" fill="#F4F6FA" font-size="12" text-anchor="middle">North America — 24 Sep 2015</text>
<circle cx="1277.3" cy="460" r="7" fill="#E0524A" stroke="#12151B" stroke-width="2"/>
<line x1="1361.7" y1="460" x2="1361.7" y2="594" stroke="#E0524A" stroke-width="1.4" opacity="0.7"/>
<rect x="1287.7" y="594" width="148.0" height="50" rx="7" fill="#242B36" stroke="#E0524A" stroke-width="1.3"/>
<text x="1361.7" y="615" fill="#E0524A" font-size="14.5" font-weight="700" text-anchor="middle">AFRINIC</text>
<text x="1361.7" y="633" fill="#F4F6FA" font-size="12" text-anchor="middle">Africa — 21 Apr 2017</text>
<circle cx="1361.7" cy="460" r="7" fill="#E0524A" stroke="#12151B" stroke-width="2"/>
<text x="56" y="894" fill="#12151B" font-size="12.5" font-weight="600">Dates = when each registry reached its final-/8 / depletion phase and effectively stopped normal allocation; small reserved &amp; recovered pools continued after (e.g. RIPE NCC made its last /22 allocations on 25 Nov 2019).</text>
</svg>